HIERARCHY
ROOT SpineBase
{
  OFFSET 0.000000 0.000000 0.000000
  CHANNELS 6 Xposition Yposition Zposition Zrotation Xrotation Yrotation
  JOINT SpineMid
  {
    OFFSET 0.000000 31.365390 0.000000
    CHANNELS 3 Zrotation Xrotation Yrotation
    JOINT SpineShoulder
    {
      OFFSET 0.216498 23.250422 -0.518848
      CHANNELS 3 Zrotation Xrotation Yrotation
      JOINT Neck
      {
        OFFSET 0.130715 7.687468 -0.446211
        CHANNELS 3 Zrotation Xrotation Yrotation
        JOINT Head
        {
          OFFSET 5.086765 12.804258 4.738318
          CHANNELS 3 Zrotation Xrotation Yrotation
          End Site
          {
            OFFSET 0 0 0
          }
        }
      }
      JOINT ShoulderLeft
      {
        OFFSET -12.267644 -2.893203 -11.282591
        CHANNELS 3 Zrotation Xrotation Yrotation
        JOINT ElbowLeft
        {
          OFFSET -6.240943 -25.998300 -7.381432
          CHANNELS 3 Zrotation Xrotation Yrotation
          JOINT WristLeft
          {
            OFFSET 1.921631 -20.312041 -4.931730
            CHANNELS 3 Zrotation Xrotation Yrotation
            JOINT HandLeft
            {
              OFFSET 1.183005 -8.174716 0.967564
              CHANNELS 3 Zrotation Xrotation Yrotation
              JOINT HandTipLeft
              {
                OFFSET 0.483674 -8.726401 -0.309263
                CHANNELS 3 Zrotation Xrotation Yrotation
                End Site
                {
                  OFFSET 0 0 0
                }
              }
              JOINT ThumbLeft
              {
                OFFSET 3.784430 0.649572 0.330330
                CHANNELS 3 Zrotation Xrotation Yrotation
                End Site
                {
                  OFFSET 0 0 0
                }
              }
            }
          }
        }
      }
      JOINT ShoulderRight
      {
        OFFSET 11.814710 -3.562176 11.980059
        CHANNELS 3 Zrotation Xrotation Yrotation
        JOINT ElbowRight
        {
          OFFSET 2.440966 -26.837730 4.851181
          CHANNELS 3 Zrotation Xrotation Yrotation
          JOINT WristRight
          {
            OFFSET 0.433690 -25.355189 -2.733868
            CHANNELS 3 Zrotation Xrotation Yrotation
            JOINT HandRight
            {
              OFFSET -1.004926 -7.015144 0.098784
              CHANNELS 3 Zrotation Xrotation Yrotation
              JOINT HandTipRight
              {
                OFFSET -1.352692 -7.662198 0.115505
                CHANNELS 3 Zrotation Xrotation Yrotation
                End Site
                {
                  OFFSET 0 0 0
                }
              }
              JOINT ThumbRight
              {
                OFFSET -2.750186 3.186666 -2.540100
                CHANNELS 3 Zrotation Xrotation Yrotation
                End Site
                {
                  OFFSET 0 0 0
                }
              }
            }
          }
        }
      }
    }
  }
  JOINT HipLeft
  {
    OFFSET -4.851528 1.650932 -7.826687
    CHANNELS 3 Zrotation Xrotation Yrotation
    JOINT KneeLeft
    {
      OFFSET -12.086059 -35.511456 -5.004005
      CHANNELS 3 Zrotation Xrotation Yrotation
      JOINT AnkleLeft
      {
        OFFSET -8.760693 -37.382610 3.910472
        CHANNELS 3 Zrotation Xrotation Yrotation
        JOINT FootLeft
        {
          OFFSET 3.738987 -6.458554 -7.669371
          CHANNELS 3 Zrotation Xrotation Yrotation
          End Site
          {
            OFFSET 0 0 0
          }
        }
      }
    }
  }
  JOINT HipRight
  {
    OFFSET 5.395555 0.172769 0.863323
    CHANNELS 3 Zrotation Xrotation Yrotation
    JOINT KneeRight
    {
      OFFSET -6.206376 -37.683146 1.730685
      CHANNELS 3 Zrotation Xrotation Yrotation
      JOINT AnkleRight
      {
        OFFSET -8.751025 -35.122125 9.181058
        CHANNELS 3 Zrotation Xrotation Yrotation
        JOINT FootRight
        {
          OFFSET 1.847162 -7.644182 -5.478720
          CHANNELS 3 Zrotation Xrotation Yrotation
          End Site
          {
            OFFSET 0 0 0
          }
        }
      }
    }
  }
}
MOTION
Frames: 8
Frame Time: 0.033333
-23.275080 84.045997 344.469591 -8.997545 1.999508 -44.791006 1.662895 0.280111 44.711860 0.807703 -0.356264 -0.241341 -5.202479 3.876414 3.256092 0.000000 0.000000 0.000000 -1.515765 1.610679 2.287743 3.684498 0.476178 -0.272031 -0.298371 -1.878863 -1.924588 1.306324 -2.382288 0.425146 0.000000 0.000000 0.000000 0.000000 0.000000 0.000000 -1.440476 2.193117 -0.684795 4.880759 -2.746655 1.644427 19.654908 3.022925 -1.030998 -17.260582 5.452637 -1.754033 0.000000 0.000000 0.000000 0.000000 0.000000 0.000000 3.829385 10.941442 42.566863 -2.094734 -1.428349 1.035275 -11.657631 -12.555592 11.974409 0.000000 0.000000 0.000000 3.016093 6.283091 44.257517 1.578400 -2.265287 0.126232 1.582904 -3.851798 -0.136745 0.000000 0.000000 0.000000
-23.252620 84.193639 343.440259 -7.550492 1.331434 -44.869377 1.527967 0.324531 44.768352 0.770455 -0.375770 -0.190230 -4.900836 2.864037 3.099350 0.000000 0.000000 0.000000 -1.391471 1.568522 1.926240 1.940229 0.590737 -0.041327 0.582763 -0.390880 -1.650135 -0.961560 -1.008511 0.410103 0.000000 0.000000 0.000000 0.000000 0.000000 0.000000 -1.496870 2.866216 -0.502303 5.665956 -3.017110 1.243407 14.290536 5.192193 -1.315025 -12.613000 4.796360 -1.795200 0.000000 0.000000 0.000000 0.000000 0.000000 0.000000 2.642148 9.851188 42.804658 -1.466145 -1.659239 1.112061 -14.694361 -14.592813 13.191525 0.000000 0.000000 0.000000 2.110880 5.313090 44.371781 1.389739 -2.051829 0.096851 1.784879 -2.263397 -0.106428 0.000000 0.000000 0.000000
-23.500567 84.391918 342.150426 -6.095907 0.376959 -44.600518 1.330677 0.291839 44.475239 0.555205 -0.211763 -0.147830 -4.219668 2.024193 2.926144 0.000000 0.000000 0.000000 -0.831427 1.260036 1.602846 0.085434 0.747407 0.126987 0.692081 0.765698 -1.557524 -0.337762 -0.579639 0.439446 0.000000 0.000000 0.000000 0.000000 0.000000 0.000000 -1.091480 2.724479 -0.416287 5.496578 -2.090943 0.897610 11.720126 7.694105 -1.756462 -10.666879 2.865898 -1.690298 0.000000 0.000000 0.000000 0.000000 0.000000 0.000000 1.336267 8.919433 42.707447 -0.498908 -2.047728 1.278000 -13.119947 -11.489642 11.281768 0.000000 0.000000 0.000000 1.325178 4.615414 44.169348 1.021465 -1.922037 0.109703 1.689746 -0.897368 -0.129219 0.000000 0.000000 0.000000
-24.019542 84.650086 340.668120 -4.863125 -0.590002 -43.885872 1.086337 0.304676 43.754329 0.319307 -0.032806 -0.114492 -3.651975 1.433623 2.797818 0.000000 0.000000 0.000000 -0.180482 0.788456 1.352608 -1.346448 0.938010 0.198529 1.016620 1.230752 -1.469767 -0.137380 0.910363 0.559349 0.000000 0.000000 0.000000 0.000000 0.000000 0.000000 -0.403025 1.466399 -0.446998 3.950139 -0.263838 0.696926 10.837233 6.197808 -1.343336 -8.942305 3.960204 -1.606395 0.000000 0.000000 0.000000 0.000000 0.000000 0.000000 0.557694 8.738941 42.002490 -0.452945 -2.836308 1.558626 -13.629072 -10.780094 10.797580 0.000000 0.000000 0.000000 0.992563 4.250041 43.556960 0.412041 -1.897990 0.161630 1.262972 -0.769096 -0.363861 0.000000 0.000000 0.000000
-24.664379 84.863375 339.084633 -3.961193 -1.297415 -42.756101 0.919304 0.184167 42.629947 0.248616 -0.175146 -0.089932 -2.269597 0.564019 2.637828 0.000000 0.000000 0.000000 0.390822 0.438295 1.218361 -2.272283 1.350943 0.160940 1.536196 1.497495 -1.316104 -1.147754 1.840525 0.594842 0.000000 0.000000 0.000000 0.000000 0.000000 0.000000 -0.019555 1.353978 -0.415005 2.921157 0.637542 0.569121 10.647472 5.407112 -1.145029 -9.837228 2.529436 -1.267357 0.000000 0.000000 0.000000 0.000000 0.000000 0.000000 0.404279 8.858257 40.811122 -0.784118 -3.725414 1.884321 -14.069102 -9.808963 10.573678 0.000000 0.000000 0.000000 0.911430 4.099693 42.518385 -0.050920 -2.463211 0.382166 0.074975 -1.457383 -0.536103 0.000000 0.000000 0.000000
-25.527733 85.036242 337.519658 -3.153610 -2.468229 -41.345750 0.749640 -0.103318 41.221121 -0.011867 -0.047345 -0.072017 -0.646574 0.057779 2.548345 0.000000 0.000000 0.000000 1.146391 0.080752 1.232016 -2.944142 2.381152 0.047033 2.995768 1.855475 -1.033020 -1.262090 1.507096 0.280608 0.000000 0.000000 0.000000 0.000000 0.000000 0.000000 0.650279 0.865675 -0.466008 1.994974 2.244144 0.526733 11.450319 4.592019 -0.971493 -11.151629 -2.606643 -0.306521 0.000000 0.000000 0.000000 0.000000 0.000000 0.000000 0.015524 9.704018 39.231847 -1.060189 -5.046310 2.408617 -14.752121 -8.815639 10.304907 0.000000 0.000000 0.000000 0.740560 3.934932 41.252355 -0.020737 -2.535732 0.622391 -2.739103 -3.966652 -0.272165 0.000000 0.000000 0.000000
-26.471416 85.140203 336.096939 -2.455946 -3.965315 -40.108466 0.863907 -0.392627 39.993232 -0.083687 0.057753 -0.037019 0.404690 0.020009 2.572834 0.000000 0.000000 0.000000 1.701712 0.268714 1.184918 -3.572117 2.888512 -0.138513 3.920783 3.612840 -0.614182 -0.029184 1.229357 -0.079230 0.000000 0.000000 0.000000 0.000000 0.000000 0.000000 0.624737 0.768292 -0.605496 1.458442 4.013353 0.580715 10.641862 3.428168 -0.669537 -8.990436 -4.037589 0.253876 0.000000 0.000000 0.000000 0.000000 0.000000 0.000000 -0.525966 10.951806 37.804309 -1.276990 -6.353317 2.965736 -15.232117 -7.819250 9.745689 0.000000 0.000000 0.000000 0.185178 5.439263 40.016471 -0.464637 -3.511416 1.018308 -2.634562 -6.163450 -2.178597 0.000000 0.000000 0.000000
-27.368008 85.188268 334.980779 -1.980446 -5.537205 -39.153881 0.889633 -0.661711 39.055107 -0.172949 0.117773 -0.009986 1.613714 -0.015966 2.645072 0.000000 0.000000 0.000000 1.996623 0.952679 1.197554 -3.671569 3.217997 -0.376946 4.126742 6.169146 -0.160547 4.101669 -2.358761 -0.454020 0.000000 0.000000 0.000000 0.000000 0.000000 0.000000 1.125869 0.339463 -0.752245 0.224724 4.513098 0.716458 9.953736 2.999002 -0.480406 -8.517254 -3.658632 0.408159 0.000000 0.000000 0.000000 0.000000 0.000000 0.000000 -1.044303 12.470306 36.634899 -1.538023 -7.554518 3.496095 -15.577660 -7.286266 8.968038 0.000000 0.000000 0.000000 -0.241592 7.288956 39.026802 -1.745151 -4.427770 1.161233 -2.358885 -6.333747 -2.769734 0.000000 0.000000 0.000000
